<svg width="116" height="39" viewBox="0 0 116 39" fill="none" xmlns="http://www.w3.org/2000/svg">
<path d="M30.775 28.1115V25.9687C30.775 22.0172 29.63 19.7246 27.0651 18.492C29.4583 16.9943 30.775 15.4967 30.775 11.4415V10.0475C30.775 5.08227 28.1758 0.439572 21.1682 0.439572H13.2102V38.4567H20.5957C27.6491 38.4683 30.775 34.7357 30.775 28.1115ZM21.0079 33.0191H18.7178V20.8421H21.1109C25.0384 20.8421 25.6911 22.8236 25.6911 26.6023C25.6911 30.381 25.359 33.0191 21.0079 33.0191ZM21.1109 16.0381H18.672V5.56613H20.9048C24.4659 5.56613 25.6796 7.32876 25.6796 10.6927C25.6796 14.0566 24.7292 16.0381 21.1109 16.0381Z" fill="#ECEDE7"/>
<path d="M43.5765 38.7908C44.791 38.822 45.999 38.6015 47.1253 38.1432C48.2515 37.6849 49.2721 36.9985 50.1236 36.1267C50.9752 35.2548 51.6394 34.2161 52.0752 33.0751C52.5109 31.9341 52.7089 30.7151 52.6567 29.4939V9.46001C52.6567 7.03709 51.7 4.7134 49.9971 3.00013C48.2943 1.28687 45.9847 0.324379 43.5765 0.324379C41.1683 0.324379 38.8588 1.28687 37.1559 3.00013C35.4531 4.7134 34.4964 7.03709 34.4964 9.46001V29.54C34.4506 30.7574 34.6534 31.9714 35.092 33.1069C35.5306 34.2425 36.1959 35.2755 37.0467 36.1424C37.8976 37.0092 38.9159 37.6915 40.039 38.147C41.1621 38.6025 42.366 38.8216 43.5765 38.7908ZM39.9124 9.41394C39.9124 8.43622 40.2985 7.49854 40.9856 6.80718C41.6728 6.11583 42.6047 5.72741 43.5765 5.72741C44.5483 5.72741 45.4803 6.11583 46.1675 6.80718C46.8546 7.49854 47.2406 8.43622 47.2406 9.41394V29.4939C47.2406 30.4716 46.8546 31.4093 46.1675 32.1007C45.4803 32.792 44.5483 33.1804 43.5765 33.1804C42.6047 33.1804 41.6728 32.792 40.9856 32.1007C40.2985 31.4093 39.9124 30.4716 39.9124 29.4939V9.41394Z" fill="#ECEDE7"/>
<path d="M74.2062 9.46001C74.2495 8.23377 74.0468 7.01131 73.6103 5.8656C73.1738 4.71988 72.5123 3.67439 71.6654 2.79149C70.8185 1.90859 69.8035 1.20639 68.681 0.72679C67.5584 0.247186 66.3514 0 65.1318 0C63.9123 0 62.7052 0.247186 61.5826 0.72679C60.4601 1.20639 59.4451 1.90859 58.5982 2.79149C57.7513 3.67439 57.0899 4.71988 56.6533 5.8656C56.2168 7.01131 56.0141 8.23377 56.0574 9.46001V29.54C56.0141 30.7662 56.2168 31.9887 56.6533 33.1344C57.0899 34.2801 57.7513 35.3256 58.5982 36.2085C59.4451 37.0914 60.4601 37.7936 61.5826 38.2732C62.7052 38.7528 63.9123 39 65.1318 39C66.3514 39 67.5584 38.7528 68.681 38.2732C69.8035 37.7936 70.8185 37.0914 71.6654 36.2085C72.5123 35.3256 73.1738 34.2801 73.6103 33.1344C74.0468 31.9887 74.2495 30.7662 74.2062 29.54V9.46001ZM68.8016 29.4939C68.8016 29.978 68.7069 30.4574 68.5227 30.9047C68.3386 31.352 68.0687 31.7583 67.7284 32.1007C67.3882 32.443 66.9843 32.7146 66.5397 32.8998C66.0952 33.0851 65.6187 33.1804 65.1375 33.1804C64.6564 33.1804 64.1799 33.0851 63.7354 32.8998C63.2908 32.7146 62.8868 32.443 62.5466 32.1007C62.2064 31.7583 61.9365 31.352 61.7523 30.9047C61.5682 30.4574 61.4734 29.978 61.4734 29.4939V9.46001C61.4734 8.97589 61.5682 8.49651 61.7523 8.04924C61.9365 7.60197 62.2064 7.19558 62.5466 6.85326C62.8868 6.51093 63.2908 6.23938 63.7354 6.05411C64.1799 5.86885 64.6564 5.7735 65.1375 5.7735C65.6187 5.7735 66.0952 5.86885 66.5397 6.05411C66.9843 6.23938 67.3882 6.51093 67.7284 6.85326C68.0687 7.19558 68.3386 7.60197 68.5227 8.04924C68.7069 8.49651 68.8016 8.97589 68.8016 9.46001V29.4939Z" fill="#ECEDE7"/>
<path d="M86.4924 38.7908C88.7896 38.7545 90.9801 37.8092 92.5896 36.1597C94.199 34.5102 95.0979 32.2893 95.0916 29.9778V27.6737H89.6871V29.54C89.6871 32.5353 87.7749 33.3878 86.252 33.3878C83.8016 33.3878 82.9543 31.6828 82.9543 29.4939V10.0015C82.9543 7.43243 83.5955 5.56613 86.2978 5.56613C88.3703 5.56613 89.6527 7.38635 89.6527 9.51762V11.3378H95.0573V9.19505C95.117 8.01434 94.9351 6.83386 94.5231 5.72669C94.1111 4.61951 93.4776 3.6092 92.6619 2.75825C91.8462 1.9073 90.8656 1.23384 89.7807 0.779524C88.6959 0.325212 87.5299 0.0997138 86.355 0.117002C85.1933 0.0657199 84.0336 0.256211 82.9485 0.676548C81.8633 1.09689 80.8761 1.73803 80.0485 2.55986C79.2209 3.38168 78.5708 4.3665 78.1389 5.45271C77.707 6.53891 77.5025 7.70312 77.5382 8.87248V29.8165C77.6069 36.7633 82.3932 38.7908 86.4924 38.7908Z" fill="#ECEDE7"/>
<path d="M110.573 16.7294H103.886V0.439574H98.4695V38.4683H103.886V21.5333H110.573V38.4683H116V0.439574H110.573V16.7294Z" fill="#ECEDE7"/>
<path d="M6.6606 34.3325C6.6872 33.8765 6.6209 33.4198 6.46577 32.9905C6.31063 32.5612 6.06993 32.1683 5.75844 31.836C5.44695 31.5037 5.07124 31.2389 4.65437 31.0579C4.23751 30.877 3.78828 30.7836 3.33427 30.7836C2.88026 30.7836 2.43103 30.877 2.01417 31.0579C1.5973 31.2389 1.22159 31.5037 0.910104 31.836C0.598614 32.1683 0.357911 32.5612 0.202773 32.9905C0.0476357 33.4198 -0.0186586 33.8765 0.00794475 34.3325V38.4567H10.3133V35.9568H6.6148L6.6606 34.3325ZM4.37053 35.8992H2.28657V34.4592C2.28657 34.1811 2.39634 33.9145 2.59175 33.7179C2.78716 33.5213 3.05219 33.4108 3.32854 33.4108C3.60489 33.4108 3.86994 33.5213 4.06534 33.7179C4.26075 33.9145 4.37053 34.1811 4.37053 34.4592V35.8992Z" fill="#ECEDE7"/>
<path d="M6.71786 20.7039H0.00794969V23.2844H6.6606C6.85531 23.2589 7.05323 23.2766 7.24035 23.3365C7.42747 23.3965 7.59921 23.497 7.74342 23.6311C7.88762 23.7652 8.00077 23.9296 8.07484 24.1125C8.14891 24.2955 8.1821 24.4926 8.17205 24.6899C8.17894 24.8849 8.14328 25.0791 8.06761 25.2588C7.99193 25.4385 7.87807 25.5993 7.73402 25.7299C7.58996 25.8606 7.41921 25.9579 7.23376 26.0151C7.04832 26.0723 6.85268 26.0879 6.6606 26.0609H0.00794969V28.6184H6.71786C7.72132 28.5638 8.66583 28.1243 9.35698 27.3903C10.0481 26.6563 10.4333 25.6837 10.4333 24.6726C10.4333 23.6616 10.0481 22.689 9.35698 21.955C8.66583 21.221 7.72132 20.7815 6.71786 20.7269V20.7039Z" fill="#ECEDE7"/>
<path d="M10.3591 15.3354H6.50029V14.4714L10.3591 12.6396V9.66737L6.04228 11.9139C5.79736 11.4032 5.41339 10.9729 4.93502 10.6732C4.45666 10.3734 3.90356 10.2164 3.34 10.2204C2.88355 10.2161 2.43116 10.3069 2.01127 10.487C1.59137 10.6671 1.21306 10.9327 0.900109 11.267C0.587162 11.6013 0.346352 11.9972 0.192814 12.4297C0.0392753 12.8622 -0.0236651 13.322 0.00794409 13.7801V17.8929H10.3133L10.3591 15.3354ZM4.38197 15.3354H2.29801V13.8954C2.29801 13.6173 2.40779 13.3507 2.60319 13.154C2.7986 12.9574 3.06365 12.847 3.34 12.847C3.61635 12.847 3.88138 12.9574 4.07679 13.154C4.2722 13.3507 4.38197 13.6173 4.38197 13.8954V15.3354Z" fill="#ECEDE7"/>
<path d="M10.3476 0.416534H8.08045V4.93251H6.27129V1.07319H4.00412V4.93251H2.27512V0.416534H0.00794829V7.49003H10.3476V0.416534Z" fill="#ECEDE7"/>
</svg>
