<svg width="25" height="23" viewBox="0 0 25 23" fill="none" xmlns="http://www.w3.org/2000/svg">
<path fill-rule="evenodd" clip-rule="evenodd" d="M6.83843 17.3171C6.58182 17.1431 6.39156 16.9911 6.26766 16.8611C6.13953 16.7266 6.04436 16.5872 5.98215 16.4428C5.93313 16.2964 5.89729 16.148 5.87464 15.9976C5.86265 15.8286 5.8403 15.6354 5.80757 15.4182L5.07546 11.6327C5.08109 11.5806 5.06629 11.4376 5.03105 11.2037L4.8989 10.3265C4.84604 9.97567 4.7803 9.58403 4.70167 9.15162L4.50156 7.82336C4.49149 7.75653 4.49365 7.6366 4.50803 7.46356C4.52241 7.29053 4.50162 7.06299 4.44564 6.78094C4.37145 6.46747 4.28814 6.13828 4.19573 5.79338C4.10332 5.44848 3.99988 4.98563 3.88541 4.40483L3.69017 3.40133C3.59891 3.39934 3.50098 3.39981 3.39636 3.40275L2.90769 3.37585C2.8831 3.37449 2.84118 3.35215 2.78191 3.30883C2.72264 3.26551 2.64039 3.24763 2.53516 3.25519C2.41691 3.27538 2.29214 3.3019 2.16086 3.33473C2.02957 3.36756 1.85563 3.39137 1.63903 3.40615L0.608988 3.46962C0.516786 3.46454 0.44669 3.39392 0.398699 3.25774C0.35144 3.10825 0.321015 2.93298 0.307423 2.73193C0.29383 2.53087 0.289825 2.32367 0.295406 2.11033C0.300987 1.89698 0.307809 1.71708 0.315872 1.57063C0.318804 1.51738 0.317421 1.43051 0.311724 1.31001C0.299881 1.18918 0.295059 1.10879 0.297258 1.06885C0.300923 1.00229 0.308902 0.969341 0.321195 0.970018C0.328075 0.957044 0.332614 0.930587 0.334813 0.890647C0.338478 0.824081 0.37017 0.752382 0.42989 0.675548C0.483462 0.598377 0.545888 0.52837 0.617168 0.465527C0.688448 0.402683 0.759361 0.346496 0.829907 0.296966C0.900454 0.247437 0.951828 0.210205 0.984028 0.18527L5.24413 0.216206C5.26001 0.209408 5.27658 0.202108 5.29387 0.194307C5.40498 0.126308 5.48031 0.0893284 5.51986 0.0833694C5.58578 0.0734377 5.62126 0.0851794 5.6263 0.118594C5.642 0.133315 5.66963 0.137697 5.70918 0.131738C5.75552 0.124756 5.81072 0.154438 5.87477 0.220786L6.01301 0.22179C6.06072 0.251123 6.11581 0.314248 6.1783 0.411163C6.23537 0.494426 6.29404 0.604485 6.35433 0.741339C6.4092 0.864542 6.45682 1.00738 6.4972 1.16984C6.51133 1.22667 6.52319 1.28338 6.53281 1.33996C6.60232 1.49148 6.65476 1.60334 6.69012 1.67556L7.20409 4.72575C7.36243 4.67699 7.52067 4.63265 7.67882 4.59273C7.87304 4.54371 8.01431 4.50684 8.10265 4.48213L22.1138 4.55907C22.1271 4.54538 22.1597 4.54246 22.2117 4.55029C22.2219 4.55183 22.2346 4.555 22.2498 4.55981L22.4274 4.56079C22.5672 4.59057 22.7326 4.65427 22.9236 4.75187L22.939 4.75938C23.0261 4.77566 23.1209 4.79461 23.2234 4.81624C23.4325 4.86035 23.6322 4.92198 23.8225 5.00111C24.0129 5.08024 24.1722 5.18624 24.3005 5.31911C24.4156 5.44998 24.4592 5.60793 24.4314 5.79295L24.0033 7.82882C23.9119 8.25656 23.8269 8.59697 23.7483 8.85004C23.6697 9.10311 23.5996 9.34484 23.5379 9.57523C23.4932 9.78294 23.4813 9.95144 23.5022 10.0807C23.5232 10.2101 23.53 10.2994 23.5225 10.3487L23.3748 11.3293C23.3133 11.6481 23.263 11.9369 23.224 12.196L23.1264 12.8435C23.1004 13.0162 23.0912 13.1221 23.0988 13.161L22.5169 15.9495C22.4928 16.1099 22.478 16.2527 22.4726 16.3781C22.4559 16.4891 22.426 16.5981 22.3829 16.7052C22.3266 16.8102 22.2373 16.9103 22.1151 17.0054C21.9929 17.1005 21.8011 17.2104 21.5396 17.335C21.4771 17.3222 21.4188 17.3105 21.3645 17.2999C21.2927 17.3359 21.221 17.3632 21.1495 17.382C21.0092 17.4055 20.8692 17.4158 20.7294 17.4127C20.5745 17.3959 20.3961 17.3852 20.1943 17.3807L16.6509 17.4619C16.6046 17.4476 16.4728 17.438 16.2555 17.4331L15.4404 17.415C15.1144 17.4078 14.7494 17.4063 14.3454 17.4107L13.1111 17.3832C13.049 17.3818 12.9408 17.3594 12.7864 17.316C12.6321 17.2725 12.4228 17.2545 12.1586 17.262C11.863 17.2821 11.5517 17.3085 11.2248 17.3412C10.8979 17.374 10.4624 17.3976 9.91845 17.4122L7.33081 17.4746C7.13147 17.4702 6.96734 17.4177 6.83843 17.3171ZM8.79875 14.1893L19.6172 14.2251L20.7521 7.73477L18.0104 7.78334C17.958 7.76883 17.809 7.75885 17.5633 7.75338L16.642 7.73289C16.2735 7.72469 15.861 7.72218 15.4044 7.72536L14.0093 7.69432C13.9392 7.69275 13.8168 7.67003 13.6422 7.62613C13.4676 7.58224 13.231 7.56364 12.9323 7.57033C12.5983 7.58957 12.2466 7.61509 11.8772 7.64688C11.5078 7.67867 11.0157 7.70106 10.4009 7.71406L7.71614 7.76451L8.79875 14.1893Z" fill="#ECEDE7"/>
<path d="M7.27356 22.0317C7.32118 22.0861 7.34499 22.1217 7.34499 22.1385C7.35094 22.1761 7.39261 22.2263 7.46999 22.2891C7.55332 22.3519 7.64261 22.4147 7.73785 22.4774C7.83904 22.5402 7.93428 22.5967 8.02356 22.6469C8.11285 22.693 8.1694 22.7202 8.1932 22.7285C8.25868 22.7578 8.32713 22.7808 8.39856 22.7976L8.57713 22.829C8.60094 22.8373 8.65749 22.8457 8.74678 22.8541C8.83606 22.8625 8.93428 22.8708 9.04142 22.8792C9.14856 22.8876 9.25273 22.8959 9.35392 22.9043C9.45511 22.9085 9.53249 22.9106 9.58606 22.9106C9.64559 22.9106 9.74678 22.8708 9.88963 22.7913C10.0325 22.7076 10.1783 22.6155 10.3271 22.5151C10.4759 22.4105 10.6099 22.31 10.7289 22.2138C10.8539 22.1175 10.9283 22.0527 10.9521 22.0192C11.0057 21.9229 11.0533 21.8078 11.095 21.6739C11.1426 21.5358 11.1575 21.4145 11.1396 21.3098L11.1664 20.2552C11.1545 20.1631 11.1069 20.0606 11.0236 19.9476C10.9462 19.8304 10.8509 19.7174 10.7378 19.6086C10.6248 19.4998 10.4998 19.4015 10.3628 19.3136C10.2319 19.2215 10.1099 19.1525 9.99678 19.1064C9.95511 19.0771 9.89856 19.0479 9.82713 19.0186C9.7557 18.9893 9.69023 18.9683 9.6307 18.9558C9.58309 18.9558 9.55332 18.9537 9.54142 18.9495C9.52951 18.9411 9.49975 18.9369 9.45213 18.9369C9.41047 18.9453 9.36285 18.9495 9.30928 18.9495L9.14856 18.9369C9.10094 18.9328 9.0563 18.9286 9.01463 18.9244C8.97297 18.916 8.94618 18.9118 8.93428 18.9118C8.91642 18.9077 8.8807 18.9139 8.82713 18.9307C8.77951 18.9474 8.72892 18.9683 8.67535 18.9934C8.62178 19.0144 8.57118 19.0353 8.52356 19.0562C8.4819 19.0771 8.45511 19.0918 8.4432 19.1002C8.40154 19.1043 8.3182 19.1378 8.1932 19.2006C8.07416 19.2634 7.94618 19.3387 7.80928 19.4266C7.67832 19.5145 7.56225 19.6045 7.46106 19.6965C7.35987 19.7886 7.30928 19.8618 7.30928 19.9162C7.30928 19.933 7.30332 19.9623 7.29142 20.0041C7.27951 20.046 7.26761 20.092 7.25571 20.1422C7.2438 20.1924 7.22892 20.2427 7.21106 20.2929C7.19916 20.3431 7.19023 20.385 7.18428 20.4184L7.16642 21.8685C7.19618 21.9187 7.2319 21.9731 7.27356 22.0317Z" fill="#ECEDE7"/>
<path d="M18.345 22.1385C18.345 22.1217 18.3212 22.0861 18.2736 22.0317C18.2319 21.9731 18.1962 21.9187 18.1664 21.8685L18.1843 20.4184C18.1902 20.385 18.1992 20.3431 18.2111 20.2929C18.2289 20.2427 18.2438 20.1924 18.2557 20.1422C18.2676 20.092 18.2795 20.046 18.2914 20.0041C18.3033 19.9623 18.3093 19.933 18.3093 19.9162C18.3093 19.8618 18.3599 19.7886 18.4611 19.6965C18.5623 19.6045 18.6783 19.5145 18.8093 19.4266C18.9462 19.3387 19.0742 19.2634 19.1932 19.2006C19.3182 19.1378 19.4015 19.1043 19.4432 19.1002C19.4551 19.0918 19.4819 19.0771 19.5236 19.0562C19.5712 19.0353 19.6218 19.0144 19.6753 18.9934C19.7289 18.9683 19.7795 18.9474 19.8271 18.9307C19.8807 18.9139 19.9164 18.9077 19.9343 18.9118C19.9462 18.9118 19.973 18.916 20.0146 18.9244C20.0563 18.9286 20.1009 18.9328 20.1486 18.9369L20.3093 18.9495C20.3628 18.9495 20.4105 18.9453 20.4521 18.9369C20.4998 18.9369 20.5295 18.9411 20.5414 18.9495C20.5533 18.9537 20.5831 18.9558 20.6307 18.9558C20.6902 18.9683 20.7557 18.9893 20.8271 19.0186C20.8986 19.0479 20.9551 19.0771 20.9968 19.1064C21.1099 19.1525 21.2319 19.2215 21.3628 19.3136C21.4998 19.4015 21.6248 19.4998 21.7378 19.6086C21.8509 19.7174 21.9462 19.8304 22.0236 19.9476C22.1069 20.0606 22.1545 20.1631 22.1664 20.2552L22.1396 21.3098C22.1575 21.4145 22.1426 21.5358 22.095 21.6739C22.0533 21.8078 22.0057 21.9229 21.9521 22.0192C21.9283 22.0527 21.8539 22.1175 21.7289 22.2138C21.6099 22.31 21.4759 22.4105 21.3271 22.5151C21.1783 22.6155 21.0325 22.7076 20.8896 22.7913C20.7468 22.8708 20.6456 22.9106 20.5861 22.9106C20.5325 22.9106 20.4551 22.9085 20.3539 22.9043C20.2527 22.8959 20.1486 22.8876 20.0414 22.8792C19.9343 22.8708 19.8361 22.8625 19.7468 22.8541C19.6575 22.8457 19.6009 22.8373 19.5771 22.829L19.3986 22.7976C19.3271 22.7808 19.2587 22.7578 19.1932 22.7285C19.1694 22.7202 19.1128 22.693 19.0236 22.6469C18.9343 22.5967 18.839 22.5402 18.7378 22.4774C18.6426 22.4147 18.5533 22.3519 18.47 22.2891C18.3926 22.2263 18.3509 22.1761 18.345 22.1385Z" fill="#ECEDE7"/>
</svg>
