<svg width="24" height="23" viewBox="0 0 24 23" fill="none" xmlns="http://www.w3.org/2000/svg">
<path fill-rule="evenodd" clip-rule="evenodd" d="M7.73505 20.5982C8.08825 20.622 8.29383 20.6631 8.35178 20.7217C8.50279 20.8326 8.82089 20.8626 9.3061 20.8115C9.81192 20.7395 10.3383 20.6468 10.8854 20.5332C11.453 20.3988 11.9783 20.2633 12.4613 20.1266C12.9297 19.9753 13.2197 19.8727 13.3311 19.8187C13.6592 19.6921 13.9758 19.5331 14.2811 19.3418L15.0079 18.8269C15.1194 18.7729 15.3441 18.6044 15.6822 18.3213C15.7214 18.2885 15.761 18.2552 15.801 18.2216L16.4284 18.7483C16.6627 18.9429 16.8596 19.0892 17.019 19.187C17.1784 19.2848 17.3265 19.3818 17.4633 19.4778C17.5774 19.5721 17.6494 19.6658 17.6791 19.7591C17.7088 19.8524 17.7358 19.9113 17.7602 19.936L18.2452 20.4261C18.4142 20.5758 18.5628 20.7154 18.6909 20.8449L19.0112 21.1685C19.0966 21.2548 19.1432 21.3125 19.1511 21.3415L20.6672 22.6205C20.7465 22.7006 20.8114 22.7768 20.862 22.849C20.9169 22.9045 20.9822 22.9494 21.058 22.9838C21.1442 23.0077 21.2565 23.0052 21.3948 22.9763C21.5332 22.9475 21.7359 22.8782 22.003 22.7686C22.1846 22.5727 22.3224 22.4273 22.4163 22.3325L22.7449 22.0004C22.7553 21.9899 22.7688 21.9824 22.7853 21.9781C22.8983 21.8392 22.993 21.6819 23.0693 21.5061C23.1457 21.3303 23.2003 21.1641 23.2332 21.0076C23.2704 20.8344 23.2898 20.6853 23.2914 20.5605C23.2973 20.4189 23.2863 20.3129 23.2584 20.2425L18.5408 15.8219C18.6339 15.7318 18.7148 15.6521 18.7833 15.5828C18.9894 15.3746 19.2021 14.8815 19.4214 14.1036C19.6262 13.311 19.8123 12.4788 19.9797 11.6068C20.1327 10.7202 20.2486 9.9003 20.3276 9.14711C20.4271 8.37308 20.4601 7.88586 20.4266 7.68545C20.2789 7.1613 20.0453 6.5921 19.7259 5.97784C19.4127 5.32812 19.044 4.85149 18.62 4.54795L15.0617 0.764848C14.7017 0.484404 14.1819 0.292301 13.5023 0.188538C12.8287 0.0493091 12.1078 -0.0128072 11.3396 0.00218663C10.5714 0.0171784 9.79814 0.110421 9.01993 0.28191C8.24784 0.417936 7.58635 0.603248 7.03545 0.837847C6.78978 0.881129 6.4926 0.976469 6.1439 1.12387C5.7952 1.27126 5.49609 1.42712 5.24655 1.59143C5.0817 1.75802 4.97142 1.85482 4.91572 1.88182C4.84553 1.89419 4.72801 1.98367 4.56315 2.15025C4.44788 2.3253 4.29751 2.50653 4.11205 2.69394L3.5122 3.21225C3.33286 3.36419 3.16382 3.50573 3.00509 3.63685C2.83186 3.75334 2.72464 3.8324 2.68343 3.87405C2.60712 3.92188 2.50521 4.06878 2.3777 4.31475C2.2708 4.5399 2.16808 4.7901 2.06955 5.06536C1.95653 5.32597 1.85381 5.57617 1.7614 5.81596C1.68959 6.03493 1.64757 6.17987 1.63533 6.2508C1.50557 6.41121 1.33298 6.81986 1.11756 7.47676C0.922748 8.11283 0.740487 8.82407 0.570781 9.61046C0.421682 10.376 0.331346 11.0968 0.299769 11.7729C0.268193 12.449 0.346578 12.8822 0.534924 13.0726C0.592876 13.1311 0.673686 13.2544 0.777355 13.4425C0.881023 13.6305 0.999179 13.8332 1.13182 14.0506C1.26447 14.2679 1.38681 14.4956 1.49885 14.7338C1.63149 14.9511 1.74546 15.1288 1.84076 15.2667L6.79909 20.4021C7.07598 20.4737 7.38797 20.539 7.73505 20.5982ZM8.61904 17.7077C8.87133 17.7247 9.01817 17.754 9.05957 17.7959C9.16742 17.8751 9.39464 17.8965 9.74122 17.86C10.1025 17.8086 10.4785 17.7424 10.8693 17.6613C11.2747 17.5653 11.6499 17.4685 11.9949 17.3708C12.3295 17.2628 12.5366 17.1894 12.6162 17.1509C12.8506 17.0604 13.0768 16.9469 13.2948 16.8102L13.814 16.4425C13.8935 16.4039 14.0541 16.2835 14.2956 16.0813C14.537 15.8791 14.8006 15.6546 15.0862 15.4078C15.3719 15.161 15.6502 14.9216 15.9211 14.6897C16.1817 14.4473 16.3782 14.2591 16.5107 14.1253C16.6579 13.9765 16.8098 13.6243 16.9664 13.0687C17.1127 12.5025 17.2456 11.9081 17.3653 11.2852C17.4745 10.6519 17.5573 10.0663 17.6137 9.52831C17.6848 8.97544 17.7084 8.62742 17.6844 8.48427C17.5789 8.10988 17.4121 7.70331 17.1839 7.26455C16.9602 6.80046 16.6969 6.46001 16.394 6.2432L13.8524 3.54098C13.5953 3.34066 13.224 3.20345 12.7385 3.12933C12.2574 3.02988 11.7424 2.98551 11.1937 2.99622C10.645 3.00693 10.0927 3.07353 9.53681 3.19603C8.98532 3.29319 8.51283 3.42555 8.11933 3.59312C7.94385 3.62404 7.73158 3.69214 7.48251 3.79742C7.23344 3.90271 7.01978 4.01403 6.84154 4.1314C6.72379 4.25039 6.64502 4.31953 6.60523 4.33882C6.5551 4.34765 6.47115 4.41157 6.3534 4.53056C6.27106 4.65559 6.16366 4.78504 6.03119 4.9189L5.60272 5.28912C5.47462 5.39766 5.35388 5.49876 5.2405 5.59242C5.11676 5.67562 5.04018 5.73209 5.01074 5.76184C4.95623 5.796 4.88344 5.90093 4.79236 6.07663C4.71601 6.23745 4.64264 6.41616 4.57226 6.61277C4.49153 6.79893 4.41816 6.97764 4.35215 7.14892C4.30086 7.30533 4.27084 7.40886 4.2621 7.45952C4.16942 7.5741 4.04614 7.86599 3.89227 8.3352C3.75311 8.78954 3.62293 9.29757 3.50171 9.85927C3.39521 10.4061 3.33068 10.921 3.30813 11.4039C3.28557 11.8868 3.34156 12.1963 3.47609 12.3322C3.51749 12.374 3.57521 12.4621 3.64926 12.5964C3.72331 12.7308 3.80771 12.8755 3.90245 13.0308C3.9972 13.186 4.08458 13.3487 4.16461 13.5188C4.25936 13.674 4.34076 13.8009 4.40883 13.8995L7.9505 17.5676C8.14828 17.6187 8.37113 17.6654 8.61904 17.7077Z" fill="#ECEDE7"/>
</svg>
