<svg width="19" height="23" viewBox="0 0 19 23" fill="none" xmlns="http://www.w3.org/2000/svg">
<path fill-rule="evenodd" clip-rule="evenodd" d="M4.2236 9.44697C4.3608 9.60292 4.4294 9.70489 4.4294 9.75288C4.44655 9.86085 4.56659 10.0048 4.78954 10.1848C5.02963 10.3647 5.28687 10.5446 5.56126 10.7246C5.8528 10.9045 6.12719 11.0665 6.38443 11.2105C6.64167 11.3424 6.80459 11.4204 6.87319 11.4444C7.06183 11.5284 7.25905 11.5943 7.46485 11.6423L7.97933 11.7323C8.04793 11.7563 8.21085 11.7803 8.46809 11.8043C8.72533 11.8283 9.00829 11.8523 9.31698 11.8763C9.62567 11.9002 9.92579 11.9242 10.2173 11.9482C10.5089 11.9602 10.7318 11.9662 10.8862 11.9662C11.0576 11.9662 11.3492 11.8523 11.7608 11.6243C12.1724 11.3844 12.5925 11.1205 13.0213 10.8326C13.45 10.5327 13.8359 10.2447 14.1788 9.96882C14.539 9.6929 14.7534 9.50695 14.8219 9.41098C14.9763 9.13506 15.1135 8.80516 15.2335 8.42127C15.3707 8.02539 15.4136 7.67749 15.3622 7.37758L15.4393 4.35447C15.405 4.09054 15.2678 3.79663 15.0277 3.47273C14.8048 3.13682 14.5304 2.81292 14.2046 2.50101C13.8787 2.1891 13.5186 1.90719 13.1242 1.65526C12.7469 1.39134 12.3953 1.1934 12.0695 1.06143C11.9494 0.97746 11.7865 0.893484 11.5807 0.809509C11.3749 0.725534 11.1863 0.665551 11.0148 0.629562C10.8776 0.629562 10.7918 0.623563 10.7575 0.611567C10.7232 0.587574 10.6375 0.575577 10.5003 0.575577C10.3802 0.59957 10.2431 0.611567 10.0887 0.611567L9.62567 0.575577C9.48848 0.563581 9.35986 0.551585 9.23981 0.539588C9.11977 0.515596 9.04259 0.503599 9.00829 0.503599C8.95685 0.491602 8.85395 0.509597 8.6996 0.557583C8.56241 0.605569 8.41664 0.665551 8.26229 0.73753C8.10795 0.797513 7.96218 0.857495 7.82498 0.917478C7.70494 0.97746 7.62777 1.01945 7.59347 1.04344C7.47342 1.05544 7.23333 1.15141 6.87319 1.33136C6.5302 1.5113 6.16149 1.72724 5.76705 1.97916C5.38977 2.23109 5.05535 2.48902 4.76381 2.75294C4.47227 3.01686 4.3265 3.2268 4.3265 3.38275C4.3265 3.43074 4.30935 3.51471 4.27505 3.63468C4.24075 3.75464 4.20645 3.8866 4.17216 4.03056C4.13786 4.17452 4.09498 4.31848 4.04354 4.46244C4.00924 4.60639 3.98351 4.72636 3.96636 4.82233L3.91491 8.97911C4.00066 9.12306 4.10356 9.27902 4.2236 9.44697ZM6.82052 7.91656C6.89238 7.99825 6.92831 8.05167 6.92831 8.0768C6.9373 8.13336 7.00018 8.20876 7.11696 8.30302C7.24272 8.39728 7.37747 8.49154 7.52119 8.58579C7.67391 8.68005 7.81763 8.76488 7.95238 8.84029C8.08713 8.90941 8.17246 8.95026 8.2084 8.96283C8.30721 9.00681 8.41051 9.04137 8.51831 9.06651L8.7878 9.11364C8.82373 9.12621 8.90907 9.13877 9.04382 9.15134C9.17856 9.16391 9.32678 9.17648 9.48848 9.18905C9.65017 9.20161 9.80738 9.21418 9.96009 9.22675C10.1128 9.23303 10.2296 9.23617 10.3104 9.23617C10.4003 9.23617 10.553 9.17648 10.7686 9.05708C10.9842 8.93141 11.2042 8.79316 11.4288 8.64235C11.6534 8.48525 11.8555 8.33444 12.0352 8.18991C12.2238 8.04538 12.3361 7.94798 12.372 7.89771C12.4529 7.75318 12.5247 7.58038 12.5876 7.37929C12.6595 7.17192 12.6819 6.98969 12.655 6.8326L12.6954 5.24906C12.6775 5.11082 12.6056 4.95686 12.4798 4.7872C12.363 4.61125 12.2193 4.44158 12.0486 4.2782C11.878 4.11482 11.6893 3.96715 11.4827 3.83519C11.2851 3.69695 11.1009 3.59326 10.9303 3.52414C10.8674 3.48015 10.782 3.43617 10.6742 3.39218C10.5664 3.34819 10.4676 3.31677 10.3778 3.29792C10.3059 3.29792 10.261 3.29478 10.2431 3.28849C10.2251 3.27593 10.1802 3.26964 10.1083 3.26964C10.0454 3.28221 9.97356 3.28849 9.89271 3.28849L9.65017 3.26964C9.57831 3.26336 9.51094 3.25708 9.44805 3.25079C9.38517 3.23822 9.34475 3.23194 9.32678 3.23194C9.29983 3.22566 9.24594 3.23508 9.16509 3.26022C9.09322 3.28535 9.01687 3.31677 8.93602 3.35447C8.85517 3.38589 8.77882 3.41731 8.70695 3.44873C8.64407 3.48015 8.60365 3.50215 8.58568 3.51471C8.5228 3.521 8.39704 3.57127 8.2084 3.66553C8.02874 3.75978 7.8356 3.87289 7.62899 4.00486C7.43136 4.13682 7.2562 4.27192 7.10348 4.41017C6.95077 4.54841 6.87442 4.65838 6.87442 4.74007C6.87442 4.7652 6.86543 4.80919 6.84747 4.87203C6.8295 4.93487 6.81153 5.00399 6.79357 5.0794C6.7756 5.1548 6.75315 5.23021 6.7262 5.30562C6.70823 5.38102 6.69475 5.44386 6.68577 5.49413L6.65882 7.67149C6.70374 7.7469 6.75764 7.82859 6.82052 7.91656Z" fill="#ECEDE7"/>
<path d="M3.1989 15.5481C3.75602 15.3588 4.14775 15.2059 4.37407 15.0894C4.6004 14.9875 4.7745 14.9074 4.89637 14.8492C5.03565 14.8055 5.18364 14.7691 5.34033 14.74C5.49702 14.7254 5.78428 14.7181 6.20212 14.7181L13.1226 14.7181C13.227 14.7181 13.288 14.7108 13.3054 14.6963H13.5143C13.8277 14.6963 14.0975 14.7764 14.3239 14.9365C14.5502 15.1113 14.8113 15.2277 15.1073 15.286C15.264 15.3151 15.4729 15.4243 15.7341 15.6136C15.9952 15.8029 16.2564 16.014 16.5175 16.247C16.7961 16.4799 17.0485 16.7129 17.2748 16.9458C17.3826 17.0568 17.4765 17.1561 17.5567 17.2439C17.5794 17.2582 17.6016 17.2731 17.6233 17.2884C17.7059 17.3472 17.7804 17.406 17.8465 17.4648C17.9126 17.5236 17.9623 17.5664 17.9953 17.5931L18.0081 17.7805C18.0706 17.9082 18.0873 18.045 18.0583 18.1908C18.0931 18.3072 18.1192 18.4164 18.1366 18.5184C18.154 18.6203 18.1627 18.7149 18.1627 18.8023C18.1627 18.9314 18.1696 19.0719 18.1833 19.2239H18.1066L18.293 21.9548C18.2599 21.9976 18.1855 22.0483 18.0697 22.1071C17.9705 22.1606 17.8382 22.2167 17.6729 22.2755C17.5241 22.329 17.3504 22.3771 17.152 22.4198C16.9536 22.4626 16.7551 22.4893 16.5567 22.5C16.5402 22.4947 16.5236 22.492 16.5071 22.492H15.9862C15.8374 22.492 15.6142 22.4947 15.3165 22.5C15.0189 22.4305 14.8039 22.3717 14.6716 22.3236C14.5393 22.2755 14.4484 22.2274 14.3988 22.1793C14.3657 22.1312 14.3492 22.0831 14.3492 22.035C14.3657 21.9815 14.374 21.92 14.374 21.8506L14.1756 20.6319C14.1921 20.6158 14.2004 20.5704 14.2004 20.4956V20.2149C14.2004 20.1027 14.1921 19.9771 14.1756 19.8381V19.4132C14.1756 19.3918 14.2004 19.3544 14.25 19.3009C14.2707 19.2785 14.2857 19.2529 14.2949 19.2239H14.1279C14.1272 19.1474 14.1229 19.0723 14.1149 18.9988C14.1149 18.8387 14.1236 18.7513 14.141 18.7368L14.0366 18.4747C14.0018 18.3873 13.8886 18.3582 13.6971 18.3873L5.26198 18.5184C5.03565 18.5475 4.87896 18.6421 4.79191 18.8023C4.73306 18.9376 4.69286 19.0782 4.67131 19.2239H4.29105C4.30023 19.2529 4.3152 19.2785 4.33597 19.3009C4.38558 19.3544 4.41038 19.3918 4.41038 19.4132V19.8381C4.39385 19.9771 4.38558 20.1027 4.38558 20.2149V20.4956C4.38558 20.549 4.45314 20.5658 4.49773 20.5769C4.51554 20.5813 4.52968 20.5848 4.5344 20.5894L4.21195 21.8506C4.21195 21.92 4.22022 21.9815 4.23676 22.035C4.23676 22.0831 4.22022 22.1312 4.18715 22.1793C4.13754 22.2274 4.04659 22.2755 3.91431 22.3236C3.78202 22.3717 3.56706 22.4305 3.26941 22.5C2.97177 22.4947 2.74853 22.492 2.59971 22.492H2.07883C2.0623 22.492 2.04576 22.4947 2.02923 22.5C1.8308 22.4893 1.63237 22.4626 1.43394 22.4198C1.23551 22.3771 1.06188 22.329 0.913061 22.2755C0.747703 22.2167 0.615417 22.1606 0.516202 22.1071C0.400452 22.0483 0.32604 21.9976 0.292969 21.9548L0.590613 17.5931C0.623685 17.5664 0.673292 17.5236 0.739435 17.4648C0.805578 17.406 0.879989 17.3472 0.962669 17.2884C1.03714 17.2355 1.11831 17.189 1.2062 17.1491L1.24029 17.1206C1.27511 17.106 1.33604 17.0696 1.42309 17.0114L3.1989 15.5481Z" fill="#ECEDE7"/>
</svg>
